PathFileType  4	(X/Y/Z) C:\Users\antoi\Documents\MyRepositories\mobilecap\ResultsAnalysis
DataRate	CameraRate	NumFrames	NumMarkers	Units	OrigDataRate	OrigDataStartFrame	OrigNumFrames
100.0	100.0	6	51	mm	100.0	1	1623
Frame#	Time	r_knee			r_shank_antsup			r_ankle			r_calc			r_5meta			r_toe			L_knee			L_shank_antsup			L_ankle			L_calc			L_5meta			L_toe			r_sh2			r_sh3			r_sh4			L_sh2			L_sh3			r_thigh1			r_thigh2			r_thigh3			r_thigh4			r_thigh5			L_thigh1			L_thigh2			L_thigh3			L_thigh4			r.ASIS			r.PSIS			L.ASIS			L.PSIS			C7			R_Shoulder			L_Shoulder			R_Sternum			L_Sternum			R_humerus			R_elbow_med			R_elbow_lat			R_forearm			R_wrist_radius			R_wrist_ulna			L_humerus			L_elbow_med			L_elbow_lat			L_forearm			L_wrist_radius			L_wrist_ulna			R_HJC			L_HJC			R_HJC_reg			L_HJC_reg			
		X1	Y1	Z1	X2	Y2	Z2	X3	Y3	Z3	X4	Y4	Z4	X5	Y5	Z5	X6	Y6	Z6	X7	Y7	Z7	X8	Y8	Z8	X9	Y9	Z9	X10	Y10	Z10	X11	Y11	Z11	X12	Y12	Z12	X13	Y13	Z13	X14	Y14	Z14	X15	Y15	Z15	X16	Y16	Z16	X17	Y17	Z17	X18	Y18	Z18	X19	Y19	Z19	X20	Y20	Z20	X21	Y21	Z21	X22	Y22	Z22	X23	Y23	Z23	X24	Y24	Z24	X25	Y25	Z25	X26	Y26	Z26	X27	Y27	Z27	X28	Y28	Z28	X29	Y29	Z29	X30	Y30	Z30	X31	Y31	Z31	X32	Y32	Z32	X33	Y33	Z33	X34	Y34	Z34	X35	Y35	Z35	X36	Y36	Z36	X37	Y37	Z37	X38	Y38	Z38	X39	Y39	Z39	X40	Y40	Z40	X41	Y41	Z41	X42	Y42	Z42	X43	Y43	Z43	X44	Y44	Z44	X45	Y45	Z45	X46	Y46	Z46	X47	Y47	Z47	X48	Y48	Z48	X49	Y49	Z49	X50	Y50	Z50	X51	Y51	Z51	

1	0.00000000	-267.07445	542.51694	-433.01198	-246.45654	468.75918	-404.87799	-296.85782	104.55857	-379.55578	-351.76993	52.58553	-425.62844	-158.21292	38.37065	-321.80714	-118.58603	63.01050	-378.98711	-254.89917	544.36690	-850.40453	-227.43363	430.99462	-879.40782	-278.07201	100.96053	-896.38178	-343.81856	52.41351	-860.59163	-125.65618	33.19928	-934.20562	-100.10227	60.41021	-870.08294	-250.50167	357.58432	-380.78388	-322.67279	473.09184	-398.06294	-331.81133	356.78079	-383.12815	-316.22684	443.03589	-886.63239	-317.26523	322.98799	-901.11565	-207.58609	866.24586	-439.67860	-194.38931	754.49099	-435.87913	-247.84517	724.25719	-410.42465	-319.68518	845.51057	-449.32407	-299.44156	731.75773	-431.22489	-189.08423	867.77625	-835.61890	-181.23130	728.62310	-849.22714	-308.19027	858.31802	-842.49023	-289.75596	720.05227	-854.50606	-170.73893	1040.86562	-504.23940	-351.94120	1103.54944	-595.58430	-158.89315	1039.11182	-769.52594	-347.91103	1105.61094	-698.32818	-330.05211	1604.23364	-661.55622	-280.61195	1561.00451	-477.51727	-251.13132	1571.73463	-817.12867	-185.09786	1535.48448	-614.02271	-180.18786	1530.70751	-667.19107	-324.31227	1295.07487	-386.03078	-357.39771	1200.12744	-459.75403	-353.52434	1208.98988	-375.07387	-267.54348	1074.26028	-348.38523	-205.06794	978.23729	-350.91353	-247.57025	966.74302	-341.91337	-270.36781	1310.92005	-904.05207	-321.68626	1222.51515	-840.48298	-299.93332	1224.87575	-907.93130	-228.79026	1066.27849	-921.01391	-178.71257	981.48591	-909.92621	-214.53028	966.63750	-918.83715	-264.35140	973.46892	-519.12497	-251.01932	972.59418	-749.10521	-250.96162	969.98261	-546.64059	-244.09336	973.49586	-721.73813	
2	0.01000000	-266.97830	542.53446	-433.01881	-246.41208	468.74043	-404.81133	-296.87598	104.62631	-379.63102	-351.70846	52.55819	-425.63716	-158.23746	38.34665	-321.86663	-118.58962	62.97957	-379.01737	-254.76417	544.34321	-850.44537	-227.25011	431.09815	-879.61410	-278.06845	100.91559	-896.40558	-343.82930	52.46608	-860.71919	-125.65924	33.05635	-934.08041	-100.13197	60.41048	-870.16815	-250.41566	357.62775	-380.79594	-322.60401	473.04705	-398.07660	-331.72655	356.77471	-383.13708	-316.11233	443.00882	-886.67256	-317.03133	322.98513	-901.19262	-207.50284	866.32353	-439.72620	-194.21688	754.49817	-435.86857	-247.73920	724.30516	-410.38134	-319.61235	845.53847	-449.22809	-299.41164	731.79607	-431.26843	-189.07813	867.76908	-835.60259	-181.14506	728.59679	-849.22773	-308.11942	858.26953	-842.51053	-289.63795	719.98232	-854.53838	-170.74874	1040.92768	-504.27645	-351.94159	1103.64894	-595.73959	-158.89695	1039.07445	-769.53811	-347.92556	1105.57145	-698.35391	-329.84889	1604.26211	-661.71163	-280.52581	1560.97954	-477.64100	-250.98039	1571.64998	-817.16138	-184.99254	1535.48982	-614.17302	-180.01372	1530.62801	-667.20004	-324.33760	1295.08275	-386.21894	-357.38276	1200.10381	-459.73592	-353.52711	1208.94969	-375.14386	-267.53479	1074.34291	-348.48795	-205.05690	978.28683	-350.91527	-247.52154	966.73014	-341.94918	-270.33281	1310.90586	-904.08293	-321.66019	1222.50884	-840.55501	-299.92200	1224.87298	-908.08893	-228.63468	1066.22587	-920.96561	-178.53509	981.48435	-909.93317	-214.34250	966.60730	-918.77100	-264.37959	973.55505	-519.13149	-251.02786	972.55866	-749.11009	-251.01438	970.18861	-546.57343	-244.16207	973.46869	-721.66017	
3	0.02000000	-266.88622	542.51680	-433.06664	-246.30870	468.75651	-404.75250	-296.87603	104.71751	-379.54801	-351.68589	52.54481	-425.67639	-158.23034	38.34650	-321.85970	-118.59396	62.96729	-379.06659	-254.62086	544.27750	-850.41806	-227.10028	431.10642	-879.68392	-278.03740	100.94008	-896.46625	-343.76198	52.52333	-860.77593	-125.65055	33.02517	-934.05671	-100.14340	60.40585	-870.19020	-250.32651	357.62807	-380.79993	-322.51752	472.97601	-398.11628	-331.65929	356.76963	-383.14854	-315.94339	443.05672	-886.76480	-316.88086	322.98617	-901.16744	-207.44404	866.36298	-439.72366	-194.10177	754.53041	-435.92017	-247.65752	724.35631	-410.37038	-319.60720	845.55668	-449.18217	-299.30987	731.84743	-431.21415	-189.07077	867.77471	-835.63039	-181.05636	728.57810	-849.26188	-308.05404	858.21237	-842.51218	-289.53490	719.91767	-854.55544	-170.77810	1040.93235	-504.29568	-351.95155	1103.68448	-595.80651	-158.90164	1039.05120	-769.55022	-347.98250	1105.50687	-698.38649	-329.63112	1604.27187	-661.89799	-280.39183	1561.03929	-477.71626	-250.83911	1571.59973	-817.21567	-184.87212	1535.47714	-614.28074	-179.85037	1530.58575	-667.34219	-324.31907	1295.09330	-386.33959	-357.41440	1200.18623	-459.80953	-353.53473	1209.01065	-375.21159	-267.54181	1074.37598	-348.57384	-205.06111	978.31842	-350.95414	-247.51890	966.75106	-342.01139	-270.28707	1310.87694	-904.11097	-321.63521	1222.49184	-840.60002	-299.91828	1224.89301	-908.21829	-228.48510	1066.19132	-920.95948	-178.37065	981.52377	-909.95016	-214.15248	966.59179	-918.65553	-264.40753	973.57154	-519.14152	-251.04246	972.52200	-749.11912	-251.03981	970.32495	-546.48606	-244.26523	973.43539	-721.57514	
4	0.03000000	-266.80480	542.47405	-433.16705	-246.16789	468.74785	-404.73329	-296.86431	104.80603	-379.41162	-351.68495	52.53227	-425.66533	-158.22901	38.33293	-321.83559	-118.60716	62.97308	-379.12528	-254.44344	544.23654	-850.45459	-226.94499	431.05886	-879.63391	-277.98619	101.01794	-896.54435	-343.68029	52.56152	-860.76403	-125.63560	33.07045	-934.08485	-100.12035	60.43998	-870.17100	-250.27831	357.59789	-380.77978	-322.40870	472.89652	-398.10152	-331.56128	356.76200	-383.13093	-315.76499	443.14024	-886.83688	-316.73328	323.00295	-901.16325	-207.35836	866.39677	-439.69731	-194.01144	754.55434	-435.95397	-247.58603	724.36894	-410.37785	-319.64294	845.55208	-449.22808	-299.20339	731.87118	-431.14208	-189.05770	867.79735	-835.72195	-180.94604	728.58973	-849.28616	-307.99229	858.16702	-842.49440	-289.43161	719.89009	-854.57756	-170.82789	1040.91426	-504.31191	-351.98726	1103.67015	-595.81349	-158.90698	1039.05525	-769.55381	-348.04442	1105.45567	-698.43169	-329.36430	1604.27461	-662.08160	-280.24806	1561.10124	-477.76806	-250.67934	1571.58484	-817.26886	-184.73531	1535.46781	-614.34655	-179.70131	1530.58452	-667.47990	-324.25886	1295.12077	-386.37902	-357.46554	1200.35203	-459.94760	-353.53840	1209.09786	-375.27729	-267.56376	1074.39439	-348.59517	-205.08990	978.35409	-351.01828	-247.55163	966.79563	-342.07825	-270.23475	1310.86125	-904.11684	-321.62785	1222.48845	-840.64125	-299.92959	1224.92848	-908.28286	-228.36914	1066.21255	-920.96703	-178.22384	981.61165	-909.95406	-213.96901	966.62632	-918.54281	-264.44205	973.54807	-519.16219	-251.05345	972.50527	-749.13845	-251.06118	970.37491	-546.45114	-244.33393	973.42125	-721.53612	
5	0.04000000	-266.73963	542.42843	-433.30629	-246.01802	468.70596	-404.74547	-296.85308	104.78087	-379.41405	-351.68368	52.52565	-425.60741	-158.24419	38.30559	-321.83126	-118.61028	62.98127	-379.13951	-254.22017	544.31011	-850.61973	-226.74809	431.06225	-879.59417	-277.95806	101.08961	-896.55964	-343.66566	52.55677	-860.71200	-125.62568	33.09898	-934.06597	-100.10867	60.47359	-870.13727	-250.20525	357.59637	-380.70601	-322.26704	472.86220	-397.98327	-331.42165	356.75168	-383.08760	-315.61862	443.18552	-886.79373	-316.56185	323.02717	-901.20351	-207.24237	866.47945	-439.77064	-193.88511	754.58883	-435.92911	-247.50681	724.34923	-410.39600	-319.64268	845.50561	-449.30537	-299.16110	731.83224	-431.14080	-189.04291	867.81433	-835.79671	-180.80438	728.64796	-849.24494	-307.92974	858.15379	-842.47129	-289.29583	719.91928	-854.61264	-170.89639	1040.91411	-504.33438	-352.07038	1103.63555	-595.81048	-158.91805	1039.09446	-769.53804	-348.07108	1105.45431	-698.48196	-329.09622	1604.29615	-662.18478	-280.14002	1561.10131	-477.83280	-250.45569	1571.58712	-817.31581	-184.57469	1535.46051	-614.32740	-179.54791	1530.60467	-667.49608	-324.18668	1295.16585	-386.41343	-357.48757	1200.45944	-460.03764	-353.54259	1209.13895	-375.33683	-267.57257	1074.45873	-348.55271	-205.13603	978.40841	-351.07420	-247.57919	966.84407	-342.14886	-270.19973	1310.90720	-904.10900	-321.64803	1222.52790	-840.70155	-299.96667	1224.98639	-908.30931	-228.30357	1066.31398	-920.95513	-178.08487	981.76744	-909.97938	-213.80187	966.71530	-918.47825	-264.49492	973.52586	-519.19448	-251.05565	972.52616	-749.16796	-251.11871	970.34413	-546.53302	-244.29988	973.44503	-721.58970	
6	0.05000000	-266.65583	542.39137	-433.39756	-245.86094	468.68306	-404.72841	-296.84237	104.63392	-379.51530	-351.68223	52.54075	-425.57333	-158.24366	38.30437	-321.81614	-118.58312	62.98613	-379.07612	-253.98435	544.45387	-850.75233	-226.52090	431.12991	-879.64741	-277.96958	101.14145	-896.49203	-343.72000	52.52303	-860.64623	-125.63027	33.10715	-934.02174	-100.14186	60.44477	-870.08080	-250.04034	357.66476	-380.58184	-322.09159	472.91309	-397.85125	-331.31323	356.74002	-383.06766	-315.44074	443.20222	-886.67969	-316.44645	323.05267	-901.15952	-207.17256	866.58035	-439.94709	-193.78457	754.69784	-435.90133	-247.43811	724.36124	-410.43222	-319.59615	845.45442	-449.30127	-299.13392	731.78249	-431.16170	-189.03345	867.81883	-835.82317	-180.64472	728.73430	-849.16835	-307.86948	858.16102	-842.45577	-289.13367	719.95973	-854.61361	-170.98833	1040.92595	-504.35751	-352.19578	1103.58355	-595.79047	-158.94227	1039.16249	-769.50266	-348.09323	1105.47338	-698.51755	-328.90629	1604.34650	-662.16555	-280.04655	1561.11416	-477.88983	-250.16073	1571.59402	-817.37521	-184.38661	1535.42441	-614.20022	-179.36558	1530.60846	-667.46193	-324.13765	1295.20163	-386.50225	-357.48192	1200.47760	-460.05773	-353.55416	1209.18117	-375.38663	-267.55068	1074.56641	-348.51652	-205.17165	978.46759	-351.10995	-247.57539	966.90657	-342.21689	-270.19219	1311.01603	-904.14500	-321.68585	1222.57910	-840.76024	-300.03198	1225.08467	-908.36261	-228.26793	1066.46181	-920.95703	-177.92878	982.01739	-910.11021	-213.64704	966.83476	-918.42924	-264.56357	973.50002	-519.22568	-251.06091	972.57079	-749.19575	-251.20529	970.27354	-546.67595	-244.21606	973.49303	-721.68695	
